<svg width="180" height="35" viewBox="0 0 180 35" fill="none" xmlns="http://www.w3.org/2000/svg">
<path d="M64.6968 16.7065C63.2841 16.0488 61.1743 15.3931 58.3654 14.7353C57.4016 14.512 56.6259 14.2886 56.0385 14.0652C55.4366 13.8418 54.9402 13.5336 54.5492 13.1427C54.1583 12.7518 53.9618 12.2967 53.9618 11.7796C53.9618 10.9688 54.3072 10.34 55.0001 9.89323C55.691 9.44646 56.6176 9.22308 57.778 9.22308C58.715 9.22308 59.532 9.46714 60.2311 9.95735C60.8082 10.3938 61.1908 10.8819 61.3811 11.428C61.4473 11.6162 61.6376 11.73 61.8362 11.7155L67.0113 11.3742C67.2781 11.3577 67.4808 11.1157 67.4374 10.8509C67.1271 9.00796 66.2088 7.58903 64.6864 6.59207C63.0297 5.50823 60.7834 4.96631 57.9476 4.96631C54.8161 4.96631 52.3567 5.54545 50.5676 6.70583C48.7929 7.85172 47.9055 9.52919 47.9055 11.7362C47.9055 12.8407 48.0586 13.7384 48.3668 14.4292C48.675 15.1201 49.2128 15.7261 49.9801 16.2432C50.791 16.7893 51.6638 17.2216 52.6008 17.5422C53.6619 17.9062 55.0105 18.2764 56.6466 18.6529C60.2518 19.4637 62.0554 20.6241 62.0554 22.1319C62.0554 22.9986 61.6707 23.6791 60.9013 24.1755C60.1318 24.6719 59.1328 24.9201 57.9042 24.9201C56.8141 24.9201 55.8358 24.6554 54.9691 24.1238C54.21 23.6584 53.7033 23.04 53.4488 22.2643C53.3806 22.0596 53.1696 21.9375 52.9566 21.9561L47.8414 22.3864C47.5684 22.4091 47.3822 22.6635 47.4277 22.9324C47.7525 24.8808 48.7784 26.397 50.5055 27.4787C52.3629 28.6515 54.8305 29.239 57.9062 29.239C61.0916 29.239 63.5757 28.604 65.3587 27.3319C67.1416 26.0598 68.0662 24.25 68.1365 21.9024C68.1924 20.3655 67.7104 19.0728 66.6907 18.0241C66.1984 17.538 65.5345 17.0995 64.6968 16.7065Z" fill="black"/>
<path d="M82.6897 5.32405H77.7814C77.527 5.32405 77.3222 5.11721 77.3222 4.86487V0.459184C77.3222 0.204772 77.1154 0 76.863 0H71.7458C71.4914 0 71.2866 0.20684 71.2866 0.459184V20.9632C71.2866 23.7866 71.8596 25.8757 73.0055 27.2305C74.1369 28.5853 76.0522 29.2637 78.7494 29.2637C80.0028 29.2637 81.339 29.1582 82.7579 28.9472C82.9834 28.9141 83.153 28.7176 83.153 28.4901V24.465C83.153 24.1796 82.8965 23.9686 82.6131 24.012C81.4941 24.1816 80.4579 24.1651 79.5043 23.9582C78.0503 23.7493 77.3243 22.68 77.3243 20.7502V10.4971C77.3243 10.2427 77.5311 10.0379 77.7835 10.0379H82.6917C82.9462 10.0379 83.1509 9.83109 83.1509 9.57875V5.78117C83.1509 5.5309 82.9441 5.32405 82.6897 5.32405Z" fill="black"/>
<path d="M110.365 5.32403H105.247C104.993 5.32403 104.788 5.53087 104.788 5.78322V8.37906C104.788 8.49489 104.641 8.53419 104.577 8.43904C103.891 7.4007 102.881 6.57955 101.549 5.97351C100.074 5.30335 98.3513 4.96826 96.3822 4.96826C94.8578 4.96826 93.4162 5.26818 92.0531 5.87009C90.69 6.47199 89.4986 7.30349 88.4789 8.36458C87.4736 9.44015 86.6835 10.7412 86.1106 12.2635C85.5376 13.7879 85.2522 15.4075 85.2522 17.1263C85.2522 18.8452 85.5376 20.4668 86.1106 21.9891C86.6835 23.5136 87.4736 24.8063 88.4789 25.8674C89.4986 26.9306 90.69 27.7621 92.0531 28.3619C93.4162 28.9617 94.8578 29.2637 96.3822 29.2637C100.474 29.2637 103.204 28.122 104.573 25.8384C104.633 25.7371 104.788 25.7743 104.788 25.8943V28.4695C104.788 28.7239 104.995 28.9286 105.247 28.9286H110.365C110.619 28.9286 110.824 28.7218 110.824 28.4695V5.78322C110.824 5.53087 110.617 5.32403 110.365 5.32403ZM102.836 22.1567C101.508 23.4846 99.9006 24.1486 98.0142 24.1486C96.1402 24.1486 94.5558 23.4846 93.2548 22.1567C91.9538 20.8288 91.3043 19.1513 91.3043 17.1263C91.3043 15.0724 91.9538 13.3887 93.2548 12.0732C94.5269 10.7598 96.1113 10.102 98.0142 10.102C99.9151 10.102 101.522 10.7598 102.836 12.0732C104.135 13.3867 104.786 15.0641 104.786 17.1036C104.786 19.1472 104.137 20.8308 102.836 22.1567Z" fill="black"/>
<path d="M128.93 4.97247C127.052 5.00557 125.538 5.24136 124.39 5.68192C123.22 6.12456 122.177 6.90435 121.261 8.02542C121.193 8.11022 121.058 8.06471 121.058 7.95716V5.78741C121.058 5.533 120.851 5.32824 120.599 5.32824H115.48C115.225 5.32824 115.021 5.53507 115.021 5.78741V28.4715C115.021 28.7259 115.227 28.9307 115.48 28.9307H120.597C120.851 28.9307 121.056 28.7239 121.056 28.4715V17.1284C121.056 14.9897 121.782 13.2791 123.236 11.9926C124.593 10.8074 126.496 10.1807 128.945 10.1124C129.195 10.1062 129.398 9.90559 129.398 9.65531V5.4358C129.4 5.17725 129.187 4.96834 128.93 4.97247Z" fill="black"/>
<path d="M152.26 8.71816C151.128 7.51642 149.757 6.5939 148.152 5.94443C146.547 5.29081 144.811 4.97021 142.954 4.97021C140.631 4.97021 138.515 5.44802 136.602 6.41396C134.674 7.3799 133.119 8.79675 131.946 10.6687C130.773 12.5261 130.184 14.6793 130.184 17.1262C130.184 19.5421 130.773 21.6891 131.946 23.561C133.104 25.406 134.645 26.8166 136.561 27.7929C138.474 28.7733 140.604 29.2615 142.954 29.2615C145.382 29.2615 147.614 28.6947 149.643 27.5633C150.303 27.2014 150.913 26.7939 151.474 26.3409C151.683 26.1713 151.693 25.8548 151.503 25.6625L148.357 22.5164C148.177 22.3365 147.887 22.3489 147.709 22.533C147.383 22.8681 147.025 23.1638 146.636 23.4224C145.564 24.1298 144.34 24.4814 142.956 24.4814C141.359 24.4814 139.965 23.9891 138.761 22.9963C137.595 22.0324 136.825 20.7542 136.449 19.1574C136.432 19.085 136.488 19.0126 136.563 19.0126H155.073C155.321 19.0126 155.528 18.8161 155.536 18.5679C155.604 16.6401 155.373 14.853 154.843 13.2066C154.266 11.4319 153.406 9.93851 152.26 8.71816ZM149.37 15.2419H136.557C136.482 15.2419 136.426 15.1716 136.441 15.0992C136.778 13.4734 137.522 12.1869 138.677 11.2354C139.835 10.2612 141.262 9.76889 142.954 9.76889C144.656 9.76889 146.092 10.2612 147.25 11.2354C148.39 12.1869 149.134 13.4734 149.484 15.0992C149.501 15.1716 149.445 15.2419 149.37 15.2419Z" fill="black"/>
<path d="M172.154 17.1925C172.127 17.1532 172.127 17.1014 172.154 17.0621L179.745 6.04584C179.956 5.73972 179.737 5.32397 179.366 5.32397H173.734C173.583 5.32397 173.443 5.39844 173.356 5.52048L167.8 13.5086C167.755 13.5748 167.657 13.5748 167.612 13.5086L162.056 5.52048C161.969 5.39637 161.829 5.32397 161.678 5.32397H156.023C155.652 5.32397 155.433 5.73972 155.644 6.04584L163.239 17.0621C163.266 17.1014 163.266 17.1532 163.239 17.1925L155.644 28.2088C155.433 28.5128 155.652 28.9306 156.023 28.9306H161.678C161.829 28.9306 161.969 28.8562 162.056 28.7341L167.612 20.7418C167.657 20.6756 167.755 20.6756 167.8 20.7418L173.356 28.7341C173.443 28.8582 173.583 28.9306 173.734 28.9306H179.366C179.737 28.9306 179.956 28.5149 179.745 28.2088L172.154 17.1925Z" fill="black"/>
<path d="M32.8703 15.3703H19.6297V2.12968C19.6297 0.954767 18.6774 0 17.5 0C16.3251 0 15.3703 0.952293 15.3703 2.12968V15.3703H2.12969C0.954774 15.3703 0 16.3226 0 17.5C0 18.6749 0.952301 19.6297 2.12969 19.6297H15.3703V32.8703C15.3703 34.0452 16.3226 35 17.5 35C18.6749 35 19.6297 34.0477 19.6297 32.8703V19.6297H32.8703C34.0452 19.6297 35 18.6774 35 17.5C35 16.3251 34.0452 15.3703 32.8703 15.3703Z" fill="black"/>
<path d="M29.8748 26.8621L20.5126 17.4999L29.8748 8.13773C30.7059 7.30663 30.7059 5.95857 29.8748 5.12747C29.0437 4.29638 27.6957 4.29638 26.8646 5.12747L17.5024 14.4897L8.14016 5.12747C7.30907 4.29638 5.96101 4.29638 5.12991 5.12747C4.29882 5.95857 4.29882 7.30663 5.12991 8.13773L14.4921 17.4999L5.12991 26.8621C4.29882 27.6932 4.29882 29.0413 5.12991 29.8724C5.96101 30.7035 7.30907 30.7035 8.14016 29.8724L17.5024 20.5102L26.8646 29.8724C27.6957 30.7035 29.0437 30.7035 29.8748 29.8724C30.7059 29.0413 30.7059 27.6932 29.8748 26.8621Z" fill="black"/>
</svg>
