<svg width="30" height="30" viewBox="0 0 30 30" fill="none" xmlns="http://www.w3.org/2000/svg">
<g clip-path="url(#clip0)">
<path d="M11.8751 25H3.12512C2.09137 25 1.25012 24.1587 1.25012 23.125V9.375C1.25012 9.03 1.53012 8.75 1.87512 8.75H23.1251C23.4701 8.75 23.7501 9.03 23.7501 9.375V11.95C23.7501 12.295 23.4701 12.575 23.1251 12.575C22.7801 12.575 22.5001 12.295 22.5001 11.95V10H2.50012V23.125C2.50012 23.4688 2.78137 23.75 3.12512 23.75H11.8751C12.2201 23.75 12.5001 24.03 12.5001 24.375C12.5001 24.72 12.2201 25 11.8751 25Z" fill="#005AFF"/>
<path d="M15.6251 13.75H9.37512C9.03012 13.75 8.75012 13.47 8.75012 13.125C8.75012 12.78 9.03012 12.5 9.37512 12.5H15.6251C15.9701 12.5 16.2501 12.78 16.2501 13.125C16.2501 13.47 15.9701 13.75 15.6251 13.75Z" fill="#005AFF"/>
<path d="M24.375 10H0.625C0.28 10 0 9.72 0 9.375V4.375C0 4.03 0.28 3.75 0.625 3.75H24.375C24.72 3.75 25 4.03 25 4.375V9.375C25 9.72 24.72 10 24.375 10ZM1.25 8.75H23.75V5H1.25V8.75Z" fill="#005AFF"/>
<path d="M24.376 5C24.216 5 24.056 4.93875 23.9335 4.8175L20.3673 1.25H4.63477L1.06852 4.8175C0.824766 5.06125 0.428516 5.06125 0.184766 4.8175C-0.0589844 4.57375 -0.0589844 4.1775 0.184766 3.93375L3.93477 0.18375C4.05102 0.06625 4.20977 0 4.37602 0H20.626C20.7923 0 20.951 0.06625 21.0685 0.1825L24.8185 3.9325C25.0623 4.17625 25.0623 4.5725 24.8185 4.81625C24.696 4.93875 24.536 5 24.376 5Z" fill="#005AFF"/>
<path d="M19.0626 23.75C18.5464 23.75 18.1251 23.3288 18.1251 22.8125C18.1251 22.2963 18.5464 21.875 19.0626 21.875C19.5789 21.875 20.0001 22.2963 20.0001 22.8125C20.0001 23.3288 19.5789 23.75 19.0626 23.75Z" fill="#005AFF"/>
<path d="M24.7214 23.75C24.2052 23.75 23.7839 23.3288 23.7839 22.8125C23.7839 22.2963 24.2052 21.875 24.7214 21.875C25.2377 21.875 25.6589 22.2963 25.6589 22.8125C25.6589 23.3288 25.2377 23.75 24.7214 23.75Z" fill="#005AFF"/>
<path d="M21.8841 27.4963C21.0766 27.4963 20.2666 27.1888 19.6516 26.5738C19.4078 26.33 19.4078 25.9338 19.6516 25.69C19.8953 25.4463 20.2916 25.4463 20.5353 25.69C21.2803 26.435 22.4878 26.435 23.2328 25.69C23.4766 25.4463 23.8728 25.4463 24.1166 25.69C24.3603 25.9338 24.3603 26.33 24.1166 26.5738C23.5016 27.1888 22.6916 27.4963 21.8841 27.4963Z" fill="#005AFF"/>
<path d="M14.3756 21.8737C14.1843 21.8737 13.9943 21.7862 13.8731 21.6212C13.6681 21.3437 13.7256 20.955 14.0018 20.75C14.1118 20.6687 16.7418 18.75 21.8831 18.75C27.0243 18.75 29.6418 20.6687 29.7506 20.75C30.0268 20.9575 30.0818 21.3475 29.8768 21.6225C29.6731 21.9 29.2793 21.955 29.0031 21.7525C28.9781 21.7337 26.5731 20 21.8818 20C17.1893 20 14.7706 21.735 14.7456 21.7525C14.6343 21.835 14.5043 21.8737 14.3756 21.8737Z" fill="#005AFF"/>
<path d="M21.8826 30C19.8401 30 18.1376 29.305 16.8201 27.935C15.2889 26.3437 14.3751 23.8537 14.3751 21.28C14.3751 21.2275 14.3814 21.1762 14.3939 21.1275L15.2989 17.0362C15.5589 15.8625 16.4826 14.9312 17.6539 14.665L21.1851 13.8562C21.6426 13.7512 22.1264 13.7537 22.5839 13.8575L26.0989 14.665C27.2701 14.9337 28.1939 15.865 28.4514 17.0362L29.3614 21.1462C29.3714 21.1912 29.3764 21.2362 29.3764 21.2812V21.47C29.3764 23.3787 28.7376 26.08 26.9464 27.9362C25.6226 29.305 23.9189 30 21.8826 30ZM15.6251 21.345C15.6426 23.0987 16.2001 25.485 17.7214 27.0675C18.7939 28.1837 20.1926 28.75 21.8826 28.75C23.5676 28.75 24.9676 28.1837 26.0464 27.065C27.5801 25.4775 28.1251 23.1325 28.1251 21.4675V21.3462L27.2301 17.3025C27.0751 16.5987 26.5226 16.04 25.8189 15.8787L22.3026 15.0712C22.0264 15.0075 21.7389 15.0062 21.4626 15.07L17.9314 15.8787C17.2289 16.0387 16.6751 16.5975 16.5189 17.3025L15.6251 21.345Z" fill="#005AFF"/>
</g>
<defs>
<clipPath id="clip0">
<rect width="30" height="30" fill="white"/>
</clipPath>
</defs>
</svg>
