<svg width="30" height="30" viewBox="0 0 30 30" fill="none" xmlns="http://www.w3.org/2000/svg">
<g clip-path="url(#clip0)">
<path d="M19.375 30C19.03 30 18.75 29.72 18.75 29.375V26.875C18.75 22.395 22.395 18.75 26.875 18.75H29.375C29.72 18.75 30 19.03 30 19.375C30 19.72 29.72 20 29.375 20H26.875C23.085 20 20 23.085 20 26.875V29.375C20 29.72 19.72 30 19.375 30Z" fill="#005AFF"/>
<path d="M25.0013 23.75C24.8251 23.75 24.6513 23.675 24.5263 23.5313C24.3013 23.27 24.3326 22.875 24.5951 22.65L28.4163 19.375L24.5951 16.1C24.3326 15.875 24.3026 15.48 24.5263 15.2188C24.7538 14.9575 25.1476 14.9263 25.4076 15.15L29.7825 18.9C29.9225 19.02 30.0013 19.1925 30.0013 19.375C30.0013 19.5575 29.9225 19.73 29.7825 19.85L25.4076 23.6C25.2901 23.7 25.1451 23.75 25.0013 23.75Z" fill="#005AFF"/>
<path d="M16.8751 25H3.12512C2.09137 25 1.25012 24.1587 1.25012 23.125V9.375C1.25012 9.03 1.53012 8.75 1.87512 8.75H23.1251C23.4701 8.75 23.7501 9.03 23.7501 9.375V13.2C23.7501 13.545 23.4701 13.825 23.1251 13.825C22.7801 13.825 22.5001 13.545 22.5001 13.2V10H2.50012V23.125C2.50012 23.4687 2.78137 23.75 3.12512 23.75H16.8751C17.2201 23.75 17.5001 24.03 17.5001 24.375C17.5001 24.72 17.2201 25 16.8751 25Z" fill="#005AFF"/>
<path d="M15.6251 13.75H9.37512C9.03012 13.75 8.75012 13.47 8.75012 13.125C8.75012 12.78 9.03012 12.5 9.37512 12.5H15.6251C15.9701 12.5 16.2501 12.78 16.2501 13.125C16.2501 13.47 15.9701 13.75 15.6251 13.75Z" fill="#005AFF"/>
<path d="M24.375 10H0.625C0.28 10 0 9.72 0 9.375V4.375C0 4.03 0.28 3.75 0.625 3.75H24.375C24.72 3.75 25 4.03 25 4.375V9.375C25 9.72 24.72 10 24.375 10ZM1.25 8.75H23.75V5H1.25V8.75Z" fill="#005AFF"/>
<path d="M24.376 5C24.216 5 24.056 4.93875 23.9335 4.8175L20.3672 1.25H4.6347L1.06845 4.8175C0.824705 5.06125 0.428455 5.06125 0.184705 4.8175C-0.0590454 4.57375 -0.0590454 4.1775 0.184705 3.93375L3.9347 0.18375C4.05095 0.06625 4.2097 0 4.37595 0H20.626C20.7922 0 20.951 0.06625 21.0685 0.1825L24.8185 3.9325C25.0622 4.17625 25.0622 4.5725 24.8185 4.81625C24.696 4.93875 24.536 5 24.376 5Z" fill="#005AFF"/>
</g>
<defs>
<clipPath id="clip0">
<rect width="30" height="30" fill="white"/>
</clipPath>
</defs>
</svg>
